<mxfile host="app.diagrams.net" modified="2020-11-29T07:23:47.295Z" agent="5.0 (Windows NT 6.1; Win64; x64) AppleWebKit/537.36 (KHTML, like Gecko) Chrome/86.0.4240.198 Safari/537.36" etag="RJK7_tdk-z5rdAXITzle" version="13.10.4" type="github">
  <diagram id="r_6eTFj4NcLReCJOViOT" name="Page-1">
    <mxGraphModel dx="2037" dy="425" grid="1" gridSize="10" guides="1" tooltips="1" connect="1" arrows="1" fold="1" page="1" pageScale="1" pageWidth="1169" pageHeight="827" math="0" shadow="0">
      <root>
        <mxCell id="0" />
        <mxCell id="1" parent="0" />
        <mxCell id="vmFppiHybvJ8Ji1wKtNc-2" style="edgeStyle=orthogonalEdgeStyle;rounded=0;orthogonalLoop=1;jettySize=auto;html=1;exitX=1;exitY=0.5;exitDx=0;exitDy=0;entryX=0;entryY=0.25;entryDx=0;entryDy=0;" edge="1" parent="1" source="DB2yZfsS4Bzt_CUdJ10X-2" target="vmFppiHybvJ8Ji1wKtNc-1">
          <mxGeometry relative="1" as="geometry" />
        </mxCell>
        <mxCell id="DB2yZfsS4Bzt_CUdJ10X-2" value="&lt;font style=&quot;font-size: 18px&quot;&gt;&lt;b&gt;污染排放&lt;br&gt;源清单&lt;/b&gt;&lt;b&gt;&lt;br&gt;&lt;/b&gt;&lt;/font&gt;" style="rounded=1;whiteSpace=wrap;html=1;fillColor=#FFD966;" parent="1" vertex="1">
          <mxGeometry x="-714" y="346" width="130" height="60" as="geometry" />
        </mxCell>
        <mxCell id="vmFppiHybvJ8Ji1wKtNc-4" style="edgeStyle=orthogonalEdgeStyle;rounded=0;orthogonalLoop=1;jettySize=auto;html=1;exitX=1;exitY=0.5;exitDx=0;exitDy=0;entryX=0;entryY=0.75;entryDx=0;entryDy=0;" edge="1" parent="1" source="DB2yZfsS4Bzt_CUdJ10X-4" target="vmFppiHybvJ8Ji1wKtNc-1">
          <mxGeometry relative="1" as="geometry" />
        </mxCell>
        <mxCell id="DB2yZfsS4Bzt_CUdJ10X-4" value="&lt;font style=&quot;font-size: 18px&quot;&gt;&lt;b&gt;WRF&lt;br&gt;&lt;/b&gt;&lt;b&gt;气象模型&lt;/b&gt;&lt;/font&gt;" style="rounded=1;whiteSpace=wrap;html=1;fillColor=#CCFFFF;" parent="1" vertex="1">
          <mxGeometry x="-714" y="456" width="130" height="60" as="geometry" />
        </mxCell>
        <mxCell id="DB2yZfsS4Bzt_CUdJ10X-6" value="&lt;span style=&quot;font-size: 18px&quot;&gt;&lt;b&gt;预报&lt;br&gt;&lt;br&gt;&lt;br&gt;&lt;/b&gt;&lt;/span&gt;&lt;font style=&quot;font-size: 18px&quot;&gt;&lt;b&gt;溯源&lt;br&gt;&lt;br&gt;&lt;/b&gt;&lt;/font&gt;" style="rounded=0;whiteSpace=wrap;html=1;fillColor=#FFCC99;" parent="1" vertex="1">
          <mxGeometry x="-240" y="341" width="50" height="180" as="geometry" />
        </mxCell>
        <mxCell id="vmFppiHybvJ8Ji1wKtNc-16" style="edgeStyle=orthogonalEdgeStyle;rounded=0;orthogonalLoop=1;jettySize=auto;html=1;exitX=1;exitY=0.5;exitDx=0;exitDy=0;" edge="1" parent="1" source="vmFppiHybvJ8Ji1wKtNc-1" target="DB2yZfsS4Bzt_CUdJ10X-6">
          <mxGeometry relative="1" as="geometry" />
        </mxCell>
        <mxCell id="vmFppiHybvJ8Ji1wKtNc-1" value="&lt;b style=&quot;font-size: 24px&quot;&gt;数值模式&lt;br&gt;CMAQ/CAMx&lt;/b&gt;" style="shape=process;whiteSpace=wrap;html=1;backgroundOutline=1;fillColor=#FFCCCC;" vertex="1" parent="1">
          <mxGeometry x="-505" y="321" width="185" height="220" as="geometry" />
        </mxCell>
        <mxCell id="vmFppiHybvJ8Ji1wKtNc-15" style="edgeStyle=orthogonalEdgeStyle;rounded=0;orthogonalLoop=1;jettySize=auto;html=1;exitX=1;exitY=0.5;exitDx=0;exitDy=0;entryX=0;entryY=0.5;entryDx=0;entryDy=0;" edge="1" parent="1" source="vmFppiHybvJ8Ji1wKtNc-5" target="vmFppiHybvJ8Ji1wKtNc-13">
          <mxGeometry relative="1" as="geometry" />
        </mxCell>
        <mxCell id="vmFppiHybvJ8Ji1wKtNc-5" value="&lt;font style=&quot;font-size: 18px&quot;&gt;&lt;b&gt;HYSPLIT&lt;/b&gt;&lt;/font&gt;" style="shape=process;whiteSpace=wrap;html=1;backgroundOutline=1;fillColor=#FFCCCC;" vertex="1" parent="1">
          <mxGeometry x="-472.5" y="195" width="120" height="60" as="geometry" />
        </mxCell>
        <mxCell id="vmFppiHybvJ8Ji1wKtNc-6" value="&lt;font style=&quot;font-size: 18px&quot;&gt;&lt;b&gt;污染排放&lt;br&gt;源清单&lt;/b&gt;&lt;b&gt;&lt;br&gt;&lt;/b&gt;&lt;/font&gt;" style="rounded=1;whiteSpace=wrap;html=1;fillColor=#FFD966;" vertex="1" parent="1">
          <mxGeometry x="-280" y="48" width="130" height="60" as="geometry" />
        </mxCell>
        <mxCell id="vmFppiHybvJ8Ji1wKtNc-7" value="" style="shape=flexArrow;endArrow=classic;startArrow=classic;html=1;fillColor=#ffe6cc;strokeColor=#d79b00;" edge="1" parent="1">
          <mxGeometry width="50" height="50" relative="1" as="geometry">
            <mxPoint x="-215.5" y="189" as="sourcePoint" />
            <mxPoint x="-215.5" y="109" as="targetPoint" />
          </mxGeometry>
        </mxCell>
        <mxCell id="vmFppiHybvJ8Ji1wKtNc-13" value="&lt;font style=&quot;font-size: 18px&quot;&gt;&lt;b&gt;溯源&lt;br&gt;&lt;/b&gt;&lt;/font&gt;" style="rounded=0;whiteSpace=wrap;html=1;fillColor=#FFCC99;" vertex="1" parent="1">
          <mxGeometry x="-240" y="190" width="50" height="70" as="geometry" />
        </mxCell>
        <mxCell id="vmFppiHybvJ8Ji1wKtNc-18" value="&lt;font style=&quot;font-size: 18px&quot;&gt;&lt;b&gt;参考&lt;/b&gt;&lt;/font&gt;" style="text;html=1;strokeColor=none;fillColor=none;align=center;verticalAlign=middle;whiteSpace=wrap;rounded=0;" vertex="1" parent="1">
          <mxGeometry x="-202" y="140" width="40" height="20" as="geometry" />
        </mxCell>
        <mxCell id="vmFppiHybvJ8Ji1wKtNc-20" style="edgeStyle=orthogonalEdgeStyle;rounded=0;orthogonalLoop=1;jettySize=auto;html=1;exitX=1;exitY=0.5;exitDx=0;exitDy=0;" edge="1" parent="1" source="vmFppiHybvJ8Ji1wKtNc-19" target="vmFppiHybvJ8Ji1wKtNc-5">
          <mxGeometry relative="1" as="geometry" />
        </mxCell>
        <mxCell id="vmFppiHybvJ8Ji1wKtNc-19" value="&lt;font style=&quot;font-size: 18px&quot;&gt;&lt;b&gt;WRF&lt;br&gt;&lt;/b&gt;&lt;b&gt;气象模型&lt;/b&gt;&lt;/font&gt;" style="rounded=1;whiteSpace=wrap;html=1;fillColor=#CCFFFF;" vertex="1" parent="1">
          <mxGeometry x="-714" y="195" width="130" height="60" as="geometry" />
        </mxCell>
        <mxCell id="vmFppiHybvJ8Ji1wKtNc-21" value="" style="endArrow=none;dashed=1;html=1;dashPattern=1 3;strokeWidth=2;" edge="1" parent="1">
          <mxGeometry width="50" height="50" relative="1" as="geometry">
            <mxPoint x="-830" y="295" as="sourcePoint" />
            <mxPoint x="-130" y="295" as="targetPoint" />
          </mxGeometry>
        </mxCell>
        <mxCell id="vmFppiHybvJ8Ji1wKtNc-22" value="&lt;font style=&quot;font-size: 24px&quot;&gt;&lt;b&gt;定性分析&lt;/b&gt;&lt;/font&gt;" style="text;html=1;strokeColor=none;fillColor=none;align=center;verticalAlign=middle;whiteSpace=wrap;rounded=0;" vertex="1" parent="1">
          <mxGeometry x="-800" y="48" width="40" height="180" as="geometry" />
        </mxCell>
        <mxCell id="vmFppiHybvJ8Ji1wKtNc-23" value="&lt;font style=&quot;font-size: 24px&quot;&gt;&lt;b&gt;定量分析&lt;/b&gt;&lt;/font&gt;" style="text;html=1;strokeColor=none;fillColor=none;align=center;verticalAlign=middle;whiteSpace=wrap;rounded=0;" vertex="1" parent="1">
          <mxGeometry x="-800" y="361" width="40" height="180" as="geometry" />
        </mxCell>
      </root>
    </mxGraphModel>
  </diagram>
</mxfile>
